# xmcd
# 
# Track frame offsets:
#     150
#     18556
#     30543
#     45037
#     54941
#     70592
#     84132
#     97860
#     115921
#     132289
#     145746
#     162170
# 
# Disc length: 2289
# 
# Revision: 1
# Processed by: cddbd v1.5.2PL0 Copyright (c) Steve Scherf et al.
# Submitted via: fre:ac v1.0.17
# 
DISCID=8308ef0c
DTITLE=Ζορμπαλά Μαργαρίτα - Τρείς κύκλοι-Μ. Θεοδωράκης
DYEAR=2010
DGENRE=Έντεχνη λαϊκή
TTITLE0=Τώρα που θα φύγεις [Μυθιστόρημα Γ. Σεφέρη]
TTITLE1=Στο στήθος μου η πληγή [Μυθιστόρημα Γ. Σεφέρη]
TTITLE2=Ο ύπνος σε τύλιξε  [Μυθιστόρημα Γ. Σεφέρη]
TTITLE3=Λίγο ακόμα [Μυθιστόρημα Γ. Σεφέρη]
TTITLE4=Θα γίνεις δικιά μου [Λιποτάχτες Γ. Θεοδωράκη]
TTITLE5=Δακρυσμένα μάτια [Λιποτάχτες Γ. Θεοδωράκη]
TTITLE6=Σκέπασε ατμός τον έρωτά μας [Λιποτάχτες Γ. Θεοδωράκη]
TTITLE7=Χάθηκα [Λιποτάχτες Γ. Θεοδωράκη]
TTITLE8=Στο περιγιάλι το κρυφό [Επιφάνια Γ. Σεφέρη]
TTITLE9=Κράτησα τη ζωή μου [Επιφάνια Γ. Σεφέρη]
TTITLE10=Άνθη της πέτρας [Επιφάνια Γ. Σεφέρη]
TTITLE11=Μέσα στις θαλασσινές σπηλιές [Επιφάνια Γ. Σεφέρη]
EXTD=
EXTT0=
EXTT1=
EXTT2=
EXTT3=
EXTT4=
EXTT5=
EXTT6=
EXTT7=
EXTT8=
EXTT9=
EXTT10=
EXTT11=
PLAYORDER=
